<?xml version="1.0" standalone="no"?>
<!DOCTYPE svg PUBLIC "-//W3C//DTD SVG 20010904//EN"
 "http://www.w3.org/TR/2001/REC-SVG-20010904/DTD/svg10.dtd">
<svg version="1.0" xmlns="http://www.w3.org/2000/svg"
 width="3000.000000pt" height="2000.000000pt" viewBox="0 0 3000.000000 2000.000000"
 preserveAspectRatio="xMidYMid meet">

<g transform="translate(0.000000,2000.000000) scale(0.100000,-0.100000)"
fill="#000000" stroke="none">
<path d="M23714 12121 c-17 -10 -40 -31 -52 -46 -22 -28 -22 -29 -22 -586 l0
-559 1391 0 c773 0 1389 4 1387 9 -1 4 -286 277 -631 605 l-628 596 -707 0
c-675 0 -708 -1 -738 -19z"/>
<path d="M22853 11398 l-602 -633 0 -699 c-1 -687 -1 -700 20 -742 15 -31 32
-48 63 -63 41 -20 57 -21 584 -21 l542 0 0 1395 c0 767 -1 1395 -3 1395 -2 0
-274 -285 -604 -632z"/>
<path d="M4265 11616 c-377 -59 -640 -278 -748 -621 -52 -166 -52 -174 -52
-1000 0 -767 0 -770 23 -874 79 -356 275 -582 599 -691 180 -60 181 -60 1371
-60 595 0 1082 2 1082 5 0 3 -83 136 -185 295 l-186 289 -847 3 c-827 4 -849
4 -916 25 -123 38 -197 109 -238 231 -22 66 -23 72 -26 745 -3 743 -1 790 54
901 43 88 109 137 231 173 52 15 149 17 909 21 l850 3 177 279 c97 153 177
281 177 284 0 3 -494 6 -1097 5 -825 -1 -1118 -4 -1178 -13z"/>
<path d="M6930 10000 l0 -1630 330 0 330 0 0 700 0 700 905 0 905 0 0 -700 0
-700 325 0 325 0 0 1630 0 1630 -325 0 -325 0 0 -645 0 -645 -905 0 -905 0 0
645 0 645 -330 0 -330 0 0 -1630z"/>
<path d="M11932 11568 c-16 -35 -363 -766 -771 -1626 -407 -860 -741 -1565
-741 -1567 0 -3 163 -5 363 -5 l363 0 150 335 149 335 844 -2 844 -3 148 -330
147 -330 367 -3 c226 -1 365 1 363 7 -1 5 -349 739 -773 1630 l-770 1621 -327
0 -326 0 -30 -62z m655 -1296 l292 -667 -586 -3 c-322 -1 -588 0 -590 2 -2 2
128 305 289 674 160 370 294 669 297 666 3 -3 137 -305 298 -672z"/>
<path d="M15070 11615 c-161 -32 -318 -119 -419 -232 -60 -67 -141 -226 -165
-323 -44 -178 -42 -554 4 -735 63 -246 218 -431 430 -515 143 -56 100 -54 980
-60 l815 -5 46 -27 c85 -50 103 -126 97 -408 -3 -157 -7 -203 -22 -235 -23
-54 -52 -84 -106 -109 -45 -21 -52 -21 -990 -24 l-945 -2 -181 -283 -181 -282
1146 -3 c759 -2 1173 1 1227 8 356 46 578 217 675 520 42 131 52 244 46 523
-5 254 -13 311 -60 440 -37 101 -84 174 -167 257 -90 91 -195 149 -338 188
l-97 26 -795 6 c-873 6 -833 3 -891 66 -47 51 -54 92 -54 304 0 204 6 243 46
295 51 63 -7 60 994 65 l910 5 177 278 177 277 -1147 -1 c-897 -1 -1161 -4
-1212 -14z"/>
<path d="M18140 10000 l0 -1630 1439 0 1440 0 -182 285 -181 285 -928 0 -928
0 0 415 0 415 898 2 897 3 3 273 2 272 -900 0 -900 0 0 375 0 375 927 2 927 3
172 270 c95 149 173 273 173 278 1 4 -642 7 -1429 7 l-1430 0 0 -1630z"/>
<path d="M25330 9363 l0 -1398 29 30 c16 17 286 301 600 633 l571 603 0 713 0
713 -23 34 c-47 71 -30 69 -634 69 l-543 0 0 -1397z"/>
<path d="M22372 9053 c10 -9 295 -281 635 -604 l618 -588 705 0 c786 -1 749
-4 797 68 l23 34 0 553 0 554 -1397 0 c-1306 0 -1396 -1 -1381 -17z"/>
</g>
</svg>
